# xmcd CD database file
#
# Track frame offsets:
#	150
#	23910
#	57282
#	82410
#	120334
#	160817
#	193661
#	226249
#	258787
#	284927
#
# Disc length: 4113 seconds
#
# Revision: 3
# Processed by: cddbd v1.5.1PL0 Copyright (c) Steve Scherf et al.
# Submitted via: CDex 1.51
#
DISCID=89100f0a
DTITLE=Spin_Deco - SMOKIN' FISH TRANCE COMPILATION vol.1
DYEAR=2003
DGENRE=Trance
TTITLE0=Sept6 - DEEP SQUARE
TTITLE1=Total Recall - TRI-HEDGE＠Code02
TTITLE2=Proper Things[Original Mix] - HEAVENS WiRE
TTITLE3=Flow Look in 2 the edge of my mind[K.v.t. Remix] - J Kz feat. Chromatic
TTITLE4=Star Gate[cosmo frontier Mix] - COSMO NOVA
TTITLE5=Moon Gate - YUUKI
TTITLE6=Lights at dawn[Original Mix] - dp feat.lunar moon
TTITLE7=Meteor[E.L.E. Mix] - COSMO NOVA
TTITLE8=Circle of Lust - Legion
TTITLE9=Come with me[Original Mix] - Spin_deco
EXTD=YEAR: 2003
EXTT0=
EXTT1=
EXTT2=
EXTT3=
EXTT4=
EXTT5=
EXTT6=
EXTT7=
EXTT8=
EXTT9=
PLAYORDER=
